# xmcd CD database file
# Copyright (C) 1995-1998 Ti Kan
#
# Track frame offsets:
#	150
#	20957
#	47722
#	76616
#	95172
#	112160
#	143135
#	164490
#	188547
#	212271
#	229709
#	245488
#
# Disc length: 3496 seconds
#
# Revision: 1
# Processed by: cddbd v1.4PL0 Copyright (c) Steve Scherf et al.
# Submitted via: CDex 1.30Release
#
DISCID=9e0da60c
DTITLE=Randy McClane - Next Ship for the Sujn
DYEAR=1900
DGENRE=Country
TTITLE0=Workaholic
TTITLE1=Born with the Blues
TTITLE2=I'll Follow the Rain
TTITLE3=Wildflower Festival
TTITLE4=The Right One
TTITLE5=Next Ship for the Sun
TTITLE6=Seven Come Eleven
TTITLE7=Dreams Really Happen
TTITLE8=Less Than A Fool
TTITLE9=Midlane Crisis
TTITLE10=Start Drinkin'
TTITLE11=Pizza Man
EXTD=ID3G:   2
EXTT0=
EXTT1=
EXTT2=
EXTT3=
EXTT4=
EXTT5=
EXTT6=
EXTT7=
EXTT8=
EXTT9=
EXTT10=
EXTT11=
PLAYORDER=
